<svg width="199" height="136" viewBox="0 0 199 136" fill="none" xmlns="http://www.w3.org/2000/svg">
<path d="M17.6272 94.1085C17.2459 94.4866 16.9432 94.9364 16.7367 95.4321C16.5302 95.9277 16.4238 96.4594 16.4238 96.9963C16.4238 97.5333 16.5302 98.0649 16.7367 98.5605C16.9432 99.0562 17.2459 99.506 17.6272 99.8841C18.3901 100.637 19.419 101.06 20.4911 101.06C21.5632 101.06 22.5921 100.637 23.355 99.8841L26.2189 97.0202L23.355 94.1563C22.5984 93.3966 21.573 92.9657 20.5009 92.9567C19.4288 92.9478 18.3963 93.3616 17.6272 94.1085ZM21.7798 95.7123C22.035 95.9673 22.2088 96.2922 22.2793 96.6459C22.3498 96.9996 22.3138 97.3663 22.1758 97.6996C22.0378 98.0329 21.8041 98.3177 21.5042 98.5182C21.2044 98.7186 20.8518 98.8255 20.4911 98.8255C20.1304 98.8255 19.7778 98.7186 19.4779 98.5182C19.178 98.3177 18.9443 98.0329 18.8064 97.6996C18.6684 97.3663 18.6324 96.9996 18.7029 96.6459C18.7734 96.2922 18.9472 95.9673 19.2023 95.7123C19.5442 95.3707 20.0078 95.1788 20.4911 95.1788C20.9744 95.1788 21.4379 95.3707 21.7798 95.7123Z" fill="#C17D5B"/>
<path d="M154.093 27.6848C154.093 28.5816 154.359 29.4584 154.857 30.2041C155.355 30.9498 156.063 31.531 156.892 31.8742C157.721 32.2174 158.632 32.3072 159.512 32.1322C160.392 31.9573 161.2 31.5254 161.834 30.8912C162.468 30.257 162.9 29.4491 163.075 28.5695C163.25 27.6898 163.16 26.7781 162.817 25.9495C162.473 25.1209 161.892 24.4127 161.147 23.9145C160.401 23.4162 159.524 23.1503 158.627 23.1503C157.425 23.1503 156.271 23.628 155.421 24.4784C154.571 25.3288 154.093 26.4822 154.093 27.6848ZM161.577 27.6848C161.577 28.2682 161.404 28.8386 161.08 29.3237C160.756 29.8088 160.295 30.1868 159.756 30.4101C159.217 30.6334 158.624 30.6918 158.052 30.578C157.48 30.4641 156.954 30.1832 156.541 29.7707C156.129 29.3581 155.848 28.8325 155.734 28.2603C155.62 27.6881 155.679 27.095 155.902 26.5559C156.125 26.0169 156.503 25.5562 156.988 25.2321C157.474 24.908 158.044 24.735 158.627 24.735C159.41 24.735 160.16 25.0458 160.713 25.599C161.266 26.1522 161.577 26.9024 161.577 27.6848Z" fill="#C17D5B"/>
<path d="M158.628 25.8899C158.983 25.8899 159.33 25.9952 159.625 26.1924C159.92 26.3896 160.15 26.6699 160.286 26.9979C160.422 27.3258 160.457 27.6867 160.388 28.0348C160.319 28.3829 160.148 28.7027 159.897 28.9537C159.646 29.2047 159.326 29.3756 158.978 29.4449C158.63 29.5141 158.269 29.4786 157.941 29.3428C157.613 29.2069 157.333 28.9769 157.135 28.6818C156.938 28.3866 156.833 28.0396 156.833 27.6846C156.833 27.2087 157.022 26.7522 157.359 26.4156C157.695 26.079 158.152 25.8899 158.628 25.8899Z" fill="#C17D5B"/>
<path opacity="0.2" d="M41.5883 0.0477735L32.3474 0.0477739L59.3733 28.3338L49.0632 58.2141L-4.39743e-06 34.5481L-4.06819e-06 42.0803L28.462 55.0064L8.24234 121.138L8.24234 128.537L13.2065 128.537L23.8797 98.5094L56.1466 116.189L66.2562 74.7102L75.6881 79.6362L61.8233 131.028L68.7349 131.028L81.7692 82.8247L105.034 94.9582L99.4587 114.118L111.739 135.15L119.758 135.15L106.743 113.039L111.077 98.118L153.615 120.313L168.05 120.313L140.231 105.793L146.036 86.0418L171.429 86.0418L198.644 47.0085L198.644 31.4383L167.229 79.3593L147.993 79.3593L171.286 0.0477678L164.317 0.0477681L157.339 23.7133L117.482 16.4771L121.797 2.51936e-05L114.895 2.54953e-05L103.239 44.4577L65.2252 24.7348L41.5883 0.0477735ZM51.7075 106.147L25.6649 91.827L34.5622 58.1472L60.1561 71.5122L51.7075 106.147ZM115.783 23.0069L155.477 30.1667L134.189 102.643L95.2869 82.3474L103.879 74.5766L108.652 50.1664L115.783 23.0069ZM101.654 51.207L97.7499 71.0731L88.929 79.0252L55.0488 61.3453L65.0916 32.2478L101.654 51.207Z" fill="#C86839"/>
<path opacity="0.4" d="M29.1016 43.2071L47.5548 52.7535L55.0487 28.3243L41.0919 14.8447C37.6714 24.5323 33.6673 34.0037 29.1016 43.2071Z" fill="#C07650"/>
<path opacity="0.4" d="M59.125 60.1807L66.7717 37.4984L90.5041 48.8395L83.1056 71.8655L59.125 60.1807Z" fill="#C07650"/>
<path opacity="0.4" d="M99.9835 37.4792C99.3438 37.2883 76.6807 26.3386 76.6807 26.3386L81.7307 10.1097L107.363 7.24575L99.9835 37.4792Z" fill="#C07650"/>
<path opacity="0.4" d="M135.133 70.7008C134.847 70.3571 111.63 62.825 111.63 62.825L117.816 27.6847L148.813 33.5366L135.133 70.7008Z" fill="#C07650"/>
<path opacity="0.4" d="M121.864 89.6121L125.358 79.0156L135.134 84.3139C135.134 84.3139 132.575 95.4736 131.821 95.4736C131.067 95.4736 121.864 89.6121 121.864 89.6121Z" fill="#C07650"/>
<path opacity="0.4" d="M151.267 89.0299C151.897 89.2876 170.035 92.963 182.13 95.3973L182.13 119.578L147.878 104.696L151.267 89.0299Z" fill="#C07650"/>
<path opacity="0.4" d="M173.892 0.0479159L182.159 0.0479155L182.159 20.019L172.851 48.1809C169.032 47.2835 165.328 46.2716 161.644 45.0688L173.892 0.0479159Z" fill="#C07650"/>
<path opacity="0.4" d="M160.633 48.6676L155.134 68.8487L165.052 71.7126L171.659 51.732C167.936 50.8442 164.251 49.8896 160.633 48.6676Z" fill="#C07650"/>
<path opacity="0.4" d="M134.179 0.0477255L155.315 0.0477246L151.267 18.6155L131.258 14.8351L134.179 0.0477255Z" fill="#C07650"/>
<path opacity="0.4" d="M93.6733 111.168L80.2129 105.278L85.0434 88.8771L99.1052 95.4737L93.6733 111.168Z" fill="#C07650"/>
<path opacity="0.4" d="M46.8481 96.2279L32.1943 88.1421L38.5618 66.2044L54.2084 73.5647L46.8481 96.2279Z" fill="#C07650"/>
<path opacity="0.4" d="M13.1875 52.3908C17.302 54.4242 22.5239 57.0495 22.858 57.4695C23.1921 57.8896 16.3187 85.0109 13.1875 97.0012L13.1875 52.3908Z" fill="#C07650"/>
<path opacity="0.4" d="M27.8986 105.287L59.2968 120.313L23.9941 120.313L27.8986 105.287Z" fill="#C07650"/>
<path d="M153.176 25.8804L153.176 26.0522C153.132 26.2997 152.992 26.5198 152.786 26.6645C152.581 26.8093 152.327 26.8671 152.079 26.8255L114.38 20.2958C112.967 24.9162 105.788 48.8491 101.874 71.9896C101.841 72.1976 101.741 72.3889 101.588 72.5337L89.6451 83.5407C89.5023 83.6732 89.3225 83.7588 89.1296 83.7861C88.9368 83.8134 88.7403 83.7811 88.5664 83.6935L63.9748 70.9204L54.8293 111.34C54.7961 111.484 54.7299 111.619 54.6358 111.733C54.5418 111.847 54.4224 111.938 54.2873 111.998C54.1521 112.058 54.0048 112.086 53.857 112.08C53.7092 112.073 53.5649 112.032 53.4356 111.96L28.6149 98.3663C28.5046 98.3036 28.4077 98.2198 28.3297 98.1197C28.2518 98.0196 28.1943 97.9051 28.1606 97.7827C28.127 97.6604 28.1177 97.5326 28.1334 97.4067C28.1491 97.2808 28.1894 97.1592 28.2521 97.0489C28.3148 96.9386 28.3986 96.8417 28.4987 96.7637C28.5989 96.6858 28.7133 96.6284 28.8357 96.5947C28.958 96.561 29.0858 96.5517 29.2117 96.5674C29.3376 96.5831 29.4592 96.6235 29.5695 96.6861L53.2828 109.717L62.4283 69.3261C62.4599 69.1829 62.5242 69.049 62.616 68.9347C62.7078 68.8203 62.8247 68.7287 62.9577 68.6668C63.0906 68.605 63.236 68.5746 63.3826 68.578C63.5292 68.5814 63.673 68.6185 63.803 68.6865L88.8814 81.7269L100.06 71.3881C104.413 45.7274 112.738 19.2266 112.824 18.9593C112.894 18.7405 113.041 18.5544 113.237 18.4352C113.434 18.3159 113.666 18.2715 113.893 18.3101L152.375 24.9448C152.597 24.9809 152.8 25.0947 152.947 25.2659C153.093 25.4372 153.175 25.6549 153.176 25.8804Z" fill="#C17D5B"/>
<path d="M173.186 12.9847C169.305 9.15257 164.045 7 158.56 7C153.075 7 147.815 9.15257 143.934 12.9847C140.131 16.8103 138 21.9594 138 27.3231C138 32.6869 140.131 37.836 143.934 41.6616L158.439 56L172.944 41.6616C176.779 37.8674 178.954 32.7358 178.999 27.372C179.044 22.0082 176.957 16.8415 173.186 12.9847ZM165.063 33.871C163.777 35.139 162.14 36.0019 160.359 36.3506C158.578 36.6994 156.732 36.5184 155.054 35.8305C153.377 35.1425 151.943 33.9786 150.935 32.4857C149.926 30.9927 149.388 29.2378 149.388 27.4426C149.388 25.6474 149.926 23.8925 150.935 22.3996C151.943 20.9067 153.377 19.7427 155.054 19.0548C156.732 18.3669 158.578 18.1859 160.359 18.5346C162.14 18.8834 163.777 19.7463 165.063 21.0142C165.942 21.8643 166.64 22.8793 167.116 23.9995C167.593 25.1198 167.838 26.3229 167.838 27.5382C167.838 28.7535 167.593 29.9566 167.116 31.0769C166.64 32.1972 165.942 33.2121 165.063 34.0622V33.871Z" fill="#BD6C43"/>
</svg>
