<svg width="163" height="137" viewBox="0 0 163 137" fill="none" xmlns="http://www.w3.org/2000/svg">
<g id="freepik--piggy-bank--inject-2">
<path id="Vector" d="M123.68 21.5698C123.68 21.5698 139.371 12.7206 141.658 13.5759C143.944 14.4312 139.656 31.839 139.086 32.9794C138.516 34.1198 123.68 21.5698 123.68 21.5698Z" fill="#EAB196" stroke="#B97756" stroke-linecap="round" stroke-linejoin="round"/>
<path id="Vector_2" d="M140.796 15.8615C140.796 15.8615 140.116 16.9196 139.25 18.4438C137.737 21.1084 135.664 25.1986 135.664 27.5616C135.664 31.268 137.945 30.9829 138.515 28.1099L140.511 19.831" stroke="#B97756" stroke-linecap="round" stroke-linejoin="round"/>
<path id="Vector_3" d="M8.9033 67.9974C13.2061 67.9974 16.6943 63.4562 16.6943 57.8543C16.6943 52.2524 13.2061 47.7112 8.9033 47.7112C4.60045 47.7112 1.1123 52.2524 1.1123 57.8543C1.1123 63.4562 4.60045 67.9974 8.9033 67.9974Z" fill="#EAB196" stroke="#B97756" stroke-linecap="round" stroke-linejoin="round"/>
<path id="Vector_4" d="M79.5207 130.638C120.52 130.638 153.757 102.5 153.757 67.7892C153.757 33.0788 120.52 4.94043 79.5207 4.94043C38.521 4.94043 5.28418 33.0788 5.28418 67.7892C5.28418 102.5 38.521 130.638 79.5207 130.638Z" fill="#EAB196" stroke="#B97756" stroke-linecap="round" stroke-linejoin="round"/>
<g id="Vector_5">
<path d="M127.737 111.114C115.126 121.158 98.1847 127.315 79.5214 127.315C46.2136 127.315 18.3119 107.703 11.0527 81.3751" fill="#EAB196"/>
<path d="M127.737 111.114C115.126 121.158 98.1847 127.315 79.5214 127.315C46.2136 127.315 18.3119 107.703 11.0527 81.3751" stroke="#B97756" stroke-width="2" stroke-linecap="round" stroke-linejoin="round"/>
</g>
<g id="Vector_6">
<path d="M9.2542 69.7625C9.22679 69.11 9.21582 68.4521 9.21582 67.7887C9.21764 60.6115 10.723 53.5142 13.6349 46.9542" fill="#EAB196"/>
<path d="M9.2542 69.7625C9.22679 69.11 9.21582 68.4521 9.21582 67.7887C9.21764 60.6115 10.723 53.5142 13.6349 46.9542" stroke="#B97756" stroke-width="2" stroke-linecap="round" stroke-linejoin="round"/>
</g>
<path id="Vector_7" d="M57.2285 11.8595C71.837 7.72927 87.3045 7.72927 101.913 11.8595" stroke="#B97756" stroke-width="5" stroke-linecap="round" stroke-linejoin="round"/>
<g id="Vector_8">
<path d="M149.646 48.3915C149.646 48.3915 159.065 45.2499 160.491 46.966C161.916 48.6821 161.916 68.6503 160.776 72.3621C159.635 76.0739 151.927 75.2131 146.521 71.2217C144.971 70.1334 143.716 68.6765 142.87 66.9823C142.024 65.2881 141.613 63.41 141.674 61.5172" fill="#EAB196"/>
<path d="M149.646 48.3915C149.646 48.3915 159.065 45.2499 160.491 46.966C161.916 48.6821 161.916 68.6503 160.776 72.3621C159.635 76.0739 151.927 75.2131 146.521 71.2217C144.971 70.1334 143.716 68.6765 142.87 66.9823C142.024 65.2881 141.613 63.41 141.674 61.5172" stroke="#B97756" stroke-linecap="round" stroke-linejoin="round"/>
</g>
<path id="Vector_9" d="M143.938 60.6613L138.23 61.5166" stroke="#B97756" stroke-linecap="round" stroke-linejoin="round"/>
<path id="Vector_10" d="M142.513 66.9393C142.513 66.9393 141.087 76.9289 142.798 77.214C144.509 77.4991 147.365 72.3618 147.365 72.3618C147.365 72.3618 143.368 67.7946 142.513 66.9393Z" fill="#263238" stroke="#B97756" stroke-linecap="round" stroke-linejoin="round"/>
<path id="Vector_11" d="M137.32 43.5444C137.868 45.6004 137.534 47.4646 136.618 47.7004C135.703 47.9361 134.535 46.4558 134.003 44.4107C133.471 42.3656 133.789 40.4905 134.705 40.2548C135.62 40.019 136.794 41.4829 137.32 43.5444Z" fill="#263238"/>
<g id="Vector_12">
<path d="M107.335 15.8893C107.335 15.8893 125.291 -2.06668 128.794 1.43679C132.298 4.94027 130.988 20.2701 130.988 22.4632V28.5929" fill="#EAB196"/>
<path d="M107.335 15.8893C107.335 15.8893 125.291 -2.06668 128.794 1.43679C132.298 4.94027 130.988 20.2701 130.988 22.4632V28.5929" stroke="#B97756" stroke-linecap="round" stroke-linejoin="round"/>
</g>
<path id="Vector_13" d="M129.387 5.30179C129.387 5.30179 129.672 0.734663 127.671 3.59118C125.67 6.44769 119.968 26.1308 121.678 28.4171C123.389 30.7034 128.257 29.5575 129.387 25.2755C130.516 20.9934 129.672 8.72303 129.672 8.72303" stroke="#B97756" stroke-linecap="round" stroke-linejoin="round"/>
<g id="Vector_14">
<path d="M31.0977 109.447L40.9228 136H51.7676L56.6144 122.299" fill="#EAB196"/>
<path d="M31.0977 109.447L40.9228 136H51.7676L56.6144 122.299" stroke="#B97756" stroke-linecap="round" stroke-linejoin="round"/>
</g>
<g id="Vector_15">
<path d="M121.678 112.885L112.265 136H101.42L96.5674 122.299" fill="#EAB196"/>
<path d="M121.678 112.885L112.265 136H101.42L96.5674 122.299" stroke="#B97756" stroke-linecap="round" stroke-linejoin="round"/>
</g>
<path id="Vector_16" d="M75.897 98.9199V93.3769C71.8069 93.2161 68.7494 91.9057 66.7244 89.4457C64.6994 86.9858 63.6029 83.3124 63.4347 78.4254L71.8398 76.9944C71.8759 78.6692 72.0853 80.3357 72.4648 81.9673C72.6861 83.081 73.2118 84.1115 73.9836 84.9444C74.332 85.2761 74.7436 85.5343 75.1938 85.7038C75.644 85.8734 76.1236 85.9507 76.6043 85.9313C77.8324 85.9313 78.6768 85.5365 79.1373 84.7361C79.6055 83.8995 79.8421 82.9532 79.8227 81.9947C79.8848 80.1935 79.395 78.4164 78.4191 76.9012C77.3277 75.3583 76.0373 73.9665 74.5812 72.7617L69.5151 68.4084C68.4099 67.3826 67.375 66.2836 66.4174 65.1188C65.4777 63.9705 64.7365 62.6733 64.2243 61.2808C63.6546 59.654 63.3816 57.9381 63.4183 56.2148C63.4183 52.4865 64.4819 49.5788 66.6092 47.4917C68.7366 45.4046 71.5858 44.2222 75.1569 43.9444V38.6974H78.0627V43.9992C79.9134 44.0365 81.7252 44.538 83.3316 45.4576C84.6339 46.2442 85.712 47.3525 86.4623 48.676C87.1878 50.001 87.7091 51.428 88.0084 52.9087C88.3112 54.369 88.5055 55.8497 88.5896 57.3387L80.0694 58.5888C80.0451 57.2807 79.926 55.976 79.713 54.6851C79.5783 53.7236 79.2009 52.8122 78.6165 52.0369C78.3215 51.7069 77.9509 51.4533 77.5366 51.2976C77.1222 51.142 76.6763 51.089 76.237 51.1432C75.7395 51.1362 75.248 51.2521 74.8061 51.4807C74.3642 51.7093 73.9856 52.0435 73.7039 52.4536C73.1308 53.2747 72.828 54.254 72.8377 55.2553C72.7657 56.8243 73.2298 58.3712 74.1535 59.6415C75.0601 60.7906 76.0556 61.8667 77.1306 62.8599L82.0651 67.1474C83.3925 68.3458 84.621 69.6495 85.7386 71.0456C86.8557 72.4454 87.7592 74.0029 88.4197 75.6676C89.1225 77.5172 89.4631 79.4846 89.423 81.4629C89.4489 83.452 89.0096 85.4196 88.14 87.2088C87.3092 88.9159 86.0347 90.3683 84.4501 91.4141C82.7436 92.5175 80.786 93.1719 78.759 93.3166V98.9199H75.897Z" fill="#BD714C"/>
<path id="Vector_17" opacity="0.35" d="M110.823 91.591C120.682 91.591 128.674 83.8513 128.674 74.3038C128.674 64.7564 120.682 57.0167 110.823 57.0167C100.963 57.0167 92.9707 64.7564 92.9707 74.3038C92.9707 83.8513 100.963 91.591 110.823 91.591Z" fill="white"/>
</g>
</svg>
