<svg width="22" height="18" viewBox="0 0 22 18" fill="none" xmlns="http://www.w3.org/2000/svg">
<g id="Twiter">
<path id="Vector" d="M21.9999 2.74233C21.1945 3.09203 20.3423 3.32243 19.4703 3.42623C20.3867 2.89 21.0759 2.03812 21.4085 1.03034C20.5421 1.5366 19.5958 1.89182 18.6101 2.08078C18.1951 1.64609 17.6959 1.30028 17.1429 1.06438C16.5899 0.82847 15.9947 0.707393 15.3935 0.708504C12.9592 0.708504 10.9892 2.64846 10.9892 5.03988C10.9875 5.37251 11.0257 5.70416 11.1029 6.02773C9.3573 5.94596 7.64804 5.50099 6.08444 4.72128C4.52083 3.94158 3.13731 2.84431 2.02239 1.49968C1.63125 2.15861 1.42439 2.91042 1.42344 3.67654C1.42344 5.17844 2.20758 6.50602 3.39162 7.28379C2.69011 7.26715 2.00297 7.08161 1.38855 6.74292V6.79656C1.38855 8.89743 2.90941 10.6452 4.92232 11.043C4.5438 11.1438 4.15374 11.1949 3.76199 11.195C3.48402 11.1955 3.20668 11.1685 2.93401 11.1145C3.4936 12.8355 5.12227 14.087 7.05154 14.1228C5.48387 15.3301 3.55919 15.9826 1.58 15.9778C1.22868 15.9773 0.877698 15.9564 0.528809 15.9152C2.54225 17.2 4.88271 17.8796 7.27162 17.8731C15.3841 17.8731 19.8161 11.271 19.8161 5.54498C19.8161 5.35724 19.8112 5.1695 19.8022 4.98624C20.6624 4.37477 21.4066 3.61491 21.9999 2.74233Z" fill="#3B3A5D"/>
</g>
</svg>
