<svg width="23" height="22" viewBox="0 0 23 22" fill="none" xmlns="http://www.w3.org/2000/svg">
<g id="Insta">
<path id="Vector" d="M16.037 2.36626C17.2658 2.36979 18.4432 2.84108 19.3121 3.67719C20.181 4.51331 20.6708 5.64631 20.6745 6.82876V15.7528C20.6708 16.9352 20.181 18.0682 19.3121 18.9044C18.4432 19.7405 17.2658 20.2118 16.037 20.2153H6.76312C5.53433 20.2118 4.3569 19.7405 3.48801 18.9044C2.61911 18.0682 2.12935 16.9352 2.12568 15.7528V6.82876C2.12935 5.64631 2.61911 4.51331 3.48801 3.67719C4.3569 2.84108 5.53433 2.36979 6.76312 2.36626H16.037ZM16.037 0.581543H6.76312C3.19238 0.581543 0.270996 3.39272 0.270996 6.82876V15.7528C0.270996 19.1888 3.19238 22 6.76312 22H16.037C19.6078 22 22.5292 19.1888 22.5292 15.7528V6.82876C22.5292 3.39272 19.6078 0.581543 16.037 0.581543Z" fill="#3B3A5D"/>
<path id="Vector_2" d="M17.4281 6.82917C17.1529 6.82917 16.884 6.75065 16.6552 6.60356C16.4264 6.45647 16.2481 6.2474 16.1428 6.00279C16.0375 5.75818 16.01 5.48903 16.0637 5.22935C16.1173 4.96968 16.2498 4.73115 16.4444 4.54394C16.6389 4.35672 16.8868 4.22923 17.1567 4.17758C17.4265 4.12593 17.7062 4.15244 17.9604 4.25376C18.2146 4.35507 18.4319 4.52665 18.5848 4.74679C18.7376 4.96693 18.8192 5.22575 18.8192 5.49051C18.8196 5.66641 18.7839 5.84065 18.7141 6.00324C18.6443 6.16582 18.5419 6.31354 18.4126 6.43793C18.2834 6.56231 18.1299 6.6609 17.9609 6.72804C17.7919 6.79518 17.6109 6.82954 17.4281 6.82917ZM11.4 7.72128C12.1337 7.72128 12.851 7.93065 13.4611 8.32292C14.0712 8.71519 14.5467 9.27273 14.8275 9.92504C15.1082 10.5774 15.1817 11.2951 15.0386 11.9876C14.8954 12.6801 14.5421 13.3162 14.0233 13.8155C13.5044 14.3148 12.8434 14.6548 12.1237 14.7925C11.4041 14.9302 10.6582 14.8595 9.98029 14.5893C9.3024 14.3192 8.723 13.8616 8.31536 13.2745C7.90771 12.6875 7.69013 11.9972 7.69013 11.2912C7.69118 10.3447 8.08238 9.43727 8.77789 8.768C9.47339 8.09873 10.4164 7.7223 11.4 7.72128ZM11.4 5.93657C10.2994 5.93657 9.22358 6.25061 8.3085 6.83898C7.39341 7.42736 6.68019 8.26364 6.25903 9.24206C5.83786 10.2205 5.72766 11.2971 5.94237 12.3358C6.15708 13.3745 6.68705 14.3286 7.46527 15.0775C8.24348 15.8263 9.23499 16.3363 10.3144 16.5429C11.3938 16.7495 12.5127 16.6435 13.5294 16.2382C14.5462 15.8329 15.4153 15.1466 16.0267 14.2661C16.6382 13.3855 16.9645 12.3502 16.9645 11.2912C16.9645 9.87105 16.3783 8.50909 15.3347 7.5049C14.2912 6.50072 12.8758 5.93657 11.4 5.93657Z" fill="#3B3A5D"/>
</g>
</svg>
